<svg xmlns="http://www.w3.org/2000/svg" width="316" height="71" viewBox="0 0 316 71" class="editor-view__logo-preview" data-v-7b637543="" data-v-1d79fc10=""><svg id="mark" viewBox="0 0 100 100" width="71" height="71" x="0" y="0" data-v-7b637543="" style="fill: #121619;"><rect x="0" y="0" width="100%" height="100%" fill="none" data-v-7b637543=""></rect><g data-v-7b637543=""><path xmlns="http://www.w3.org/2000/svg" d="M88.239,52.88c-1.53-1.77-4.036-2.667-7.449-2.667c-0.547,0-1.1,0.024-1.652,0.065c-0.62-1.353-1.725-2.153-3.326-2.153  c-10.748,0-60.187,0.292-60.187,0.292s-5.652-0.276-4.013,5.788c1.639,6.063,14.868,28.938,34.711,28.938  c11.238,0,16.235-3.454,22.393-9.056c7.492-0.76,19.599-5.371,20.993-14.898C90.091,56.573,89.597,54.451,88.239,52.88z   M85.618,58.59c-0.619,4.231-4.498,6.981-7.643,8.542c-1.479,0.734-3.021,1.32-4.515,1.771c3.869-5.091,5.961-10.497,6.241-14.519  c0.366-0.022,0.731-0.037,1.09-0.037c2.128,0,3.623,0.428,4.321,1.237C85.648,56.204,85.819,57.216,85.618,58.59z"></path><path xmlns="http://www.w3.org/2000/svg" d="M87.746,82.315c0,0-17.638,2.641-36.93,2.641c-0.707,0-1.419-0.005-2.132-0.012v-0.001c-0.037,0-0.073,0-0.109,0.001  c-0.037,0-0.073,0-0.109-0.001v0.001c-0.714,0.007-1.426,0.012-2.132,0.012c-19.292,0-36.93-2.641-36.93-2.641l2.48,2.641  c0,0,0.628,0.107,1.731,0.283l1.459,1.554c0,0,19.879,3.376,31.455,3.376c0.621,0,1.274,0,1.947,0c0.034,0,0.066,0,0.1,0  c0.034,0,0.066,0,0.1,0c0.673,0,1.326,0,1.947,0c11.575,0,31.455-3.376,31.455-3.376l1.459-1.554  c1.103-0.177,1.731-0.283,1.731-0.283L87.746,82.315z"></path><path xmlns="http://www.w3.org/2000/svg" d="M45.266,14.163c0,0,4.052,6.226,1.68,11.069c-2.372,4.843-1.384,10.08,0.296,13.144c0.494-2.965-0.198-9.092,1.878-12.106  S48.725,17.622,45.266,14.163z"></path><path xmlns="http://www.w3.org/2000/svg" d="M46.348,9.163c0,0,6.052,13.226,3.68,18.069c-2.372,4.843-1.384,10.08,0.296,13.144c0.494-2.965-0.604-8.153,1.406-11.212  C54.755,24.562,50.85,13.665,46.348,9.163z"></path></g></svg><svg id="name" viewBox="0 0 229.67799377441406 60.67399978637695" width="229" height="60.494894276754785" x="87" y="5.252552861622608" data-v-7b637543="" style="fill: #121619;"><rect x="0" y="0" width="100%" height="100%" fill="none" data-v-7b637543=""></rect><g data-v-7b637543=""><path xmlns="http://www.w3.org/2000/svg" d="M13.48 40.02Q7.36 40.02 3.68 37.70Q0 35.37 0 30.59L0 30.59Q0 28.06 0.87 26.73Q1.75 25.39 3.45 25.39L3.45 25.39Q4.69 25.39 5.47 26.04Q6.26 26.68 6.26 27.69L6.26 27.69Q6.26 28.61 6.12 29.30L6.12 29.30Q6.12 29.49 6.05 29.95Q5.98 30.41 5.98 30.91L5.98 30.91Q5.98 32.98 8.07 33.99Q10.17 35.01 13.94 35.01L13.94 35.01Q17.85 35.01 20.06 33.60Q22.26 32.20 22.26 29.67L22.26 29.67Q22.26 28.11 21.25 26.98Q20.24 25.85 18.72 25.09Q17.20 24.33 14.44 23.23L14.44 23.23Q10.90 21.85 8.67 20.61Q6.44 19.37 4.85 17.23Q3.27 15.09 3.27 11.91L3.27 11.91Q3.27 8.60 5.04 6.03Q6.81 3.45 10.14 2.02Q13.48 0.60 17.99 0.60L17.99 0.60Q21.34 0.60 24.15 1.59Q26.96 2.58 28.63 4.60Q30.31 6.62 30.31 9.57L30.31 9.57Q30.31 12.47 29.44 13.94Q28.57 15.41 26.86 15.41L26.86 15.41Q25.67 15.41 24.86 14.67Q24.06 13.94 24.06 12.93L24.06 12.93Q24.06 12.05 24.20 11.32L24.20 11.32Q24.33 9.94 24.33 9.57L24.33 9.57Q24.33 7.64 22.45 6.62Q20.56 5.61 17.76 5.61L17.76 5.61Q13.80 5.61 11.71 7.06Q9.61 8.51 9.61 11.13L9.61 11.13Q9.61 12.88 10.70 14.12Q11.78 15.36 13.39 16.19Q15.00 17.02 17.89 18.17L17.89 18.17Q21.39 19.60 23.51 20.75Q25.62 21.90 27.12 23.87Q28.61 25.85 28.61 28.75L28.61 28.75Q28.61 34.18 24.50 37.10Q20.38 40.02 13.48 40.02L13.48 40.02ZM57.09 29.39Q57.68 29.39 58.03 29.95Q58.37 30.50 58.37 31.46L58.37 31.46Q58.37 33.30 57.50 34.32L57.50 34.32Q55.52 36.75 53.25 38.32Q50.97 39.88 48.07 39.88L48.07 39.88Q45.63 39.88 44.11 38.13L44.11 38.13Q41.49 39.84 38.64 39.88L38.64 39.88Q38.04 48.76 35.93 54.72Q33.81 60.67 29.72 60.67L29.72 60.67Q27.23 60.67 26.04 58.88Q24.84 57.09 24.84 53.91L24.84 53.91Q24.84 49.40 26.91 43.40Q28.98 37.40 33.30 30.18L33.30 30.18Q33.30 23.46 33.21 20.84L33.21 20.84Q33.17 19.50 34.27 18.72Q35.37 17.94 37.03 17.94L37.03 17.94Q38.00 17.94 38.43 18.33Q38.87 18.72 38.92 19.87L38.92 19.87Q38.92 21.02 38.96 21.57L38.96 21.57Q40.43 19.73 41.86 18.93Q43.29 18.12 44.90 18.12L44.90 18.12Q47.47 18.12 49.11 20.19Q50.74 22.26 50.74 25.62L50.74 25.62Q50.74 28.06 49.96 30.36Q49.17 32.66 47.79 34.55L47.79 34.55Q48.76 34.82 49.40 34.82L49.40 34.82Q50.92 34.82 52.30 33.72Q53.68 32.61 55.84 30.04L55.84 30.04Q56.40 29.39 57.09 29.39L57.09 29.39ZM38.87 35.47Q40.53 35.10 41.93 33.65Q43.33 32.20 44.16 30.06Q44.99 27.92 44.99 25.58L44.99 25.58Q44.99 24.20 44.44 23.48Q43.88 22.77 42.96 22.77L42.96 22.77Q41.31 22.77 38.96 26.27L38.96 26.27Q38.92 28.29 38.92 32.20L38.92 32.20Q38.92 34.32 38.87 35.47L38.87 35.47ZM30.08 56.17Q31.33 56.17 32.15 50.76Q32.98 45.36 33.21 37.31L33.21 37.31Q31.23 41.91 30.08 46.09Q28.93 50.28 28.93 53.13L28.93 53.13Q28.93 54.60 29.28 55.38Q29.62 56.17 30.08 56.17L30.08 56.17ZM60.67 15.18Q58.74 15.18 57.78 14.28Q56.81 13.39 56.81 11.78L56.81 11.78Q56.81 10.17 58.07 9.09Q59.34 8.00 61.23 8.00L61.23 8.00Q62.93 8.00 63.99 8.83Q65.04 9.66 65.04 11.18L65.04 11.18Q65.04 13.02 63.85 14.10Q62.65 15.18 60.67 15.18L60.67 15.18ZM60.31 39.88Q57.32 39.88 55.96 37.77Q54.60 35.65 54.60 32.15L54.60 32.15Q54.60 30.08 55.13 26.84Q55.66 23.60 56.49 20.79L56.49 20.79Q56.90 19.32 57.59 18.77Q58.28 18.22 59.80 18.22L59.80 18.22Q62.15 18.22 62.15 19.78L62.15 19.78Q62.15 20.93 61.27 25.12L61.27 25.12Q60.17 30.18 60.17 31.97L60.17 31.97Q60.17 33.35 60.54 34.09Q60.90 34.82 61.78 34.82L61.78 34.82Q62.61 34.82 63.85 33.67Q65.09 32.52 67.16 30.04L67.16 30.04Q67.71 29.39 68.40 29.39L68.40 29.39Q69 29.39 69.34 29.95Q69.69 30.50 69.69 31.46L69.69 31.46Q69.69 33.30 68.82 34.32L68.82 34.32Q64.26 39.88 60.31 39.88L60.31 39.88ZM74.75 39.88Q70.24 39.88 67.73 37.33Q65.23 34.78 65.23 30.59L65.23 30.59Q65.23 26.86 66.70 24.06Q68.17 21.25 70.52 19.73Q72.86 18.22 75.44 18.22L75.44 18.22Q77.97 18.22 79.37 19.71Q80.78 21.21 80.78 23.55L80.78 23.55Q80.78 25.48 79.92 26.82Q79.07 28.15 77.69 28.15L77.69 28.15Q76.82 28.15 76.29 27.74Q75.76 27.32 75.76 26.59L75.76 26.59Q75.76 26.27 75.85 25.85Q75.95 25.44 75.99 25.25L75.99 25.25Q76.22 24.56 76.22 23.97L76.22 23.97Q76.22 23.37 75.92 23.05Q75.62 22.72 75.07 22.72L75.07 22.72Q74.01 22.72 73.09 23.67Q72.17 24.61 71.62 26.22Q71.07 27.83 71.07 29.76L71.07 29.76Q71.07 35.10 75.72 35.10L75.72 35.10Q77.60 35.10 79.79 33.83Q81.97 32.57 84.09 30.04L84.09 30.04Q84.64 29.39 85.33 29.39L85.33 29.39Q85.93 29.39 86.27 29.95Q86.62 30.50 86.62 31.46L86.62 31.46Q86.62 33.21 85.74 34.32L85.74 34.32Q83.58 36.98 80.57 38.43Q77.56 39.88 74.75 39.88L74.75 39.88ZM106.44 29.49Q107.04 29.49 107.39 30.06Q107.73 30.64 107.73 31.51L107.73 31.51Q107.73 32.57 107.41 33.17Q107.09 33.76 106.40 34.22L106.40 34.22L97.57 40.16Q95.82 49.68 92.99 55.13Q90.16 60.58 85.79 60.58L85.79 60.58Q83.44 60.58 81.97 59.13Q80.50 57.68 80.50 55.34L80.50 55.34Q80.50 53.18 81.49 50.92Q82.48 48.67 85.17 45.75Q87.86 42.83 92.78 39.05L92.78 39.05L92.92 38.00Q93.24 36.29 93.66 33.12L93.66 33.12Q92.74 36.43 91.08 38.16Q89.42 39.88 87.58 39.88L87.58 39.88Q85.51 39.88 84.20 37.97Q82.89 36.06 82.89 33.21L82.89 33.21Q82.89 29.76 83.35 26.89Q83.81 24.01 84.87 20.79L84.87 20.79Q85.33 19.41 86.16 18.81Q86.99 18.22 88.78 18.22L88.78 18.22Q89.79 18.22 90.18 18.54Q90.57 18.86 90.57 19.50L90.57 19.50Q90.57 19.87 90.07 21.99L90.07 21.99Q89.61 23.69 89.33 25.07L89.33 25.07Q88.96 26.96 88.69 28.68Q88.41 30.41 88.41 31.51L88.41 31.51Q88.41 33.26 89.38 33.26L89.38 33.26Q90.07 33.26 91.10 31.88Q92.14 30.50 93.31 27.69Q94.48 24.89 95.59 20.79L95.59 20.79Q95.96 19.41 96.72 18.81Q97.47 18.22 98.99 18.22L98.99 18.22Q100.05 18.22 100.46 18.49Q100.88 18.77 100.88 19.41L100.88 19.41Q100.88 20.56 99.68 27.32L99.68 27.32L98.49 34.73Q102.03 32.06 105.39 29.85L105.39 29.85Q105.98 29.49 106.44 29.49L106.44 29.49ZM86.30 56.12Q87.45 56.12 88.87 53.45Q90.30 50.78 91.72 44.57L91.72 44.57Q88.18 47.56 86.59 50.02Q85.01 52.49 85.01 54.33L85.01 54.33Q85.01 55.11 85.31 55.61Q85.61 56.12 86.30 56.12L86.30 56.12ZM154.84 10.21Q154.84 14.12 152.08 16.95Q149.32 19.78 144.03 21.02L144.03 21.02Q146.88 21.80 148.35 23.58Q149.82 25.35 149.82 27.65L149.82 27.65Q149.82 31.28 147.54 33.95Q145.27 36.62 140.90 38.06Q136.53 39.51 130.36 39.51L130.36 39.51Q128.06 39.51 126.68 39.38L126.68 39.38Q126.64 40.66 125.58 41.31Q124.52 41.95 122.87 41.95L122.87 41.95Q121.21 41.95 120.59 41.22Q119.97 40.48 120.06 39.05L120.06 39.05Q120.47 32.61 121.67 25.55Q122.87 18.49 124.71 11.91L124.71 11.91Q125.03 10.76 125.99 10.30Q126.96 9.84 128.52 9.84L128.52 9.84Q131.33 9.84 131.33 11.41L131.33 11.41Q131.33 12.05 131.05 12.88L131.05 12.88Q129.86 16.47 128.66 22.61Q127.47 28.75 126.96 34.32L126.96 34.32Q129.17 34.50 130.55 34.50L130.55 34.50Q136.99 34.50 140.00 32.64Q143.01 30.77 143.01 27.88L143.01 27.88Q143.01 25.85 141.29 24.47Q139.56 23.09 135.52 22.95L135.52 22.95Q134.60 22.91 134.23 22.49Q133.86 22.08 133.86 21.16L133.86 21.16Q133.86 19.83 134.41 19.00Q134.96 18.17 136.44 18.12L136.44 18.12Q139.70 18.03 142.35 17.16Q144.99 16.28 146.51 14.70Q148.03 13.11 148.03 10.99L148.03 10.99Q148.03 8.33 145.41 6.79Q142.78 5.24 137.36 5.24L137.36 5.24Q132.43 5.24 127.83 6.51Q123.23 7.77 120.01 9.71L120.01 9.71Q118.54 10.58 117.53 10.58L117.53 10.58Q116.70 10.58 116.26 10.01Q115.83 9.43 115.83 8.56L115.83 8.56Q115.83 7.41 116.31 6.58Q116.79 5.75 118.63 4.69L118.63 4.69Q122.50 2.48 127.70 1.24Q132.89 0 138.32 0L138.32 0Q146.65 0 150.74 2.81Q154.84 5.61 154.84 10.21L154.84 10.21ZM157.50 39.88Q155.76 39.88 155.04 38.04Q154.33 36.20 154.33 32.15L154.33 32.15Q154.33 26.17 156.03 20.79L156.03 20.79Q156.45 19.46 157.39 18.84Q158.33 18.22 160.03 18.22L160.03 18.22Q160.95 18.22 161.32 18.45Q161.69 18.68 161.69 19.32L161.69 19.32Q161.69 20.06 161 22.63L161 22.63Q160.54 24.47 160.26 25.85Q159.99 27.23 159.80 29.26L159.80 29.26Q161.32 25.30 163.21 22.82Q165.09 20.33 166.91 19.27Q168.73 18.22 170.25 18.22L170.25 18.22Q173.24 18.22 173.24 21.21L173.24 21.21Q173.24 21.80 172.82 24.10L172.82 24.10Q172.45 25.94 172.45 26.40L172.45 26.40Q172.45 28.01 173.60 28.01L173.60 28.01Q174.89 28.01 176.92 25.99L176.92 25.99Q177.51 25.39 178.16 25.39L178.16 25.39Q178.76 25.39 179.10 25.92Q179.45 26.45 179.45 27.32L179.45 27.32Q179.45 29.03 178.53 29.99L178.53 29.99Q177.24 31.33 175.51 32.27Q173.79 33.21 171.86 33.21L171.86 33.21Q169.42 33.21 168.15 31.97Q166.89 30.73 166.89 28.61L166.89 28.61Q166.89 27.92 167.03 27.23L167.03 27.23Q167.12 26.31 167.12 25.99L167.12 25.99Q167.12 25.25 166.61 25.25L166.61 25.25Q165.92 25.25 164.80 26.80Q163.67 28.34 162.56 30.87Q161.46 33.40 160.77 36.20L160.77 36.20Q160.26 38.36 159.60 39.12Q158.93 39.88 157.50 39.88L157.50 39.88ZM195.68 29.39Q196.28 29.39 196.63 29.95Q196.97 30.50 196.97 31.46L196.97 31.46Q196.97 33.30 196.10 34.32L196.10 34.32Q194.40 36.39 191.29 38.13Q188.19 39.88 184.64 39.88L184.64 39.88Q179.81 39.88 177.15 37.26Q174.48 34.64 174.48 30.08L174.48 30.08Q174.48 26.91 175.81 24.17Q177.15 21.44 179.52 19.83Q181.88 18.22 184.87 18.22L184.87 18.22Q187.54 18.22 189.15 19.80Q190.76 21.39 190.76 24.10L190.76 24.10Q190.76 27.28 188.49 29.55Q186.21 31.83 180.78 33.17L180.78 33.17Q181.93 35.28 185.15 35.28L185.15 35.28Q187.22 35.28 189.87 33.83Q192.51 32.38 194.44 30.04L194.44 30.04Q194.99 29.39 195.68 29.39L195.68 29.39ZM184.09 22.72Q182.39 22.72 181.22 24.70Q180.04 26.68 180.04 29.49L180.04 29.49L180.04 29.58Q182.76 28.93 184.32 27.65Q185.89 26.36 185.89 24.66L185.89 24.66Q185.89 23.78 185.40 23.25Q184.92 22.72 184.09 22.72L184.09 22.72ZM227.79 25.67Q227.93 25.62 228.25 25.62L228.25 25.62Q228.94 25.62 229.31 26.08Q229.68 26.54 229.68 27.32L229.68 27.32Q229.68 28.75 229.13 29.55Q228.57 30.36 227.47 30.73L227.47 30.73Q225.35 31.42 222.96 31.42L222.96 31.42Q220.94 31.42 219.14 30.87L219.14 30.87Q217.81 33.03 216.20 35.33L216.20 35.33Q214.36 37.95 213.05 38.92Q211.74 39.88 210.08 39.88L210.08 39.88Q208.24 39.88 207.30 38.46Q206.36 37.03 206.13 33.76L206.13 33.76L205.90 30.41Q204.47 34.27 203.34 36.29Q202.22 38.32 201.09 39.10Q199.96 39.88 198.44 39.88L198.44 39.88Q196.56 39.88 195.48 38.41Q194.40 36.94 194.12 33.76L194.12 33.76Q193.57 27.32 193.57 22.49L193.57 22.49L193.57 20.88Q193.61 19.37 194.40 18.77Q195.18 18.17 196.74 18.17L196.74 18.17Q197.94 18.17 198.51 18.70Q199.09 19.23 199.09 20.47L199.09 20.47Q199.09 25.76 199.73 34.22L199.73 34.22Q202.86 27.65 205.48 20.52L205.48 20.52Q205.99 19.14 206.70 18.65Q207.41 18.17 208.43 18.17L208.43 18.17Q209.67 18.17 210.15 18.68Q210.63 19.18 210.63 20.47L210.63 20.47Q210.63 25.76 211.28 34.22L211.28 34.22Q214.04 30.13 215.42 27.69L215.42 27.69Q214.73 26.36 214.73 24.52L214.73 24.52Q214.73 22.95 215.42 21.48Q216.11 20.01 217.30 19.09Q218.50 18.17 220.02 18.17L220.02 18.17Q221.35 18.17 222.18 19.11Q223.01 20.06 223.01 21.85L223.01 21.85Q223.01 23.92 221.90 26.59L221.90 26.59Q223.65 26.50 226.55 25.90L226.55 25.90L227.79 25.67Z"></path></g></svg><!----></svg>