<svg xmlns="http://www.w3.org/2000/svg" version="1.1" xmlns:xlink="http://www.w3.org/1999/xlink" xmlns:svgjs="http://svgjs.dev/svgjs" width="800" height="700" preserveAspectRatio="none" viewBox="0 0 800 700">
    <g mask="url(&quot;#SvgjsMask1089&quot;)" fill="none">
        <path d="M58.15972831408946 193.6255194287162L43.35191978807229 362.87954537036785 212.60594572972394 377.68735389638505 227.41375425574114 208.43332795473336z" fill="rgba(69, 84, 95, 0.34)" class="triangle-float1"></path>
        <path d="M631.749,517.476C671.524,518.765,711.117,501.347,730.976,466.86C750.801,432.432,746.231,389.302,724.83,355.831C705.002,324.821,668.531,310.308,631.749,311.672C597.388,312.947,567.484,332.767,549.907,362.32C531.883,392.623,526.618,429.587,543.068,460.772C560.613,494.034,594.163,516.258,631.749,517.476" fill="rgba(69, 84, 95, 0.34)" class="triangle-float3"></path>
        <path d="M777.145,759.192C844.426,759.887,910.895,732.069,945.205,674.189C980.145,615.248,978.048,540.21,941.199,482.443C906.798,428.514,841.111,411.067,777.145,410.725C712.421,410.379,644.27,425.749,610.024,480.672C574.076,538.324,580.038,612.519,614.995,670.777C648.944,727.356,711.166,758.51,777.145,759.192" fill="rgba(69, 84, 95, 0.34)" class="triangle-float2"></path>
        <path d="M675.780064798114 261.50093307774995L551.5015104856379 200.88623207970295 490.88680948759094 325.16478639217905 615.1653638000671 385.77948739022605z" fill="rgba(69, 84, 95, 0.34)" class="triangle-float2"></path>
        <path d="M268.29374528593155 602.871010808177L215.00860449398664 703.0857853052933 391.9733366356335 732.9061092446525z" fill="rgba(69, 84, 95, 0.34)" class="triangle-float2"></path>
    </g>
    <defs>
        <mask id="SvgjsMask1089">
            <rect width="800" height="700" fill="#ffffff"></rect>
        </mask>
        <style>
            @keyframes float1 {
                    0%{transform: translate(0, 0)}
                    50%{transform: translate(-12px, 8px)}
                    100%{transform: translate(0, 0)}
                }

                .triangle-float1 {
                    animation: float1 5s infinite;
                }

                @keyframes float2 {
                    0%{transform: translate(0, 0)}
                    50%{transform: translate(-5px, -10px)}
                    100%{transform: translate(0, 0)}
                }

                .triangle-float2 {
                    animation: float2 4s infinite;
                }

                @keyframes float3 {
                    0%{transform: translate(0, 0)}
                    50%{transform: translate(10px, -10px)}
                    100%{transform: translate(0, 0)}
                }

                .triangle-float3 {
                    animation: float3 6s infinite;
                }
        </style>
    </defs>
</svg>